<svg width="16" height="16" viewBox="0 0 14 14" fill="none" xmlns="http://www.w3.org/2000/svg">
<rect x="0.642057" y="0.425046" width="12.7677" height="12.7677" stroke="white" stroke-width="0.41186"/>
<g clip-path="url(#clip0_1_159)">
<path d="M6.97528 5.14366C6.04962 5.14366 5.30298 5.88645 5.30298 6.80735C5.30298 7.72824 6.04962 8.47103 6.97528 8.47103C7.90094 8.47103 8.64758 7.72824 8.64758 6.80735C8.64758 5.88645 7.90094 5.14366 6.97528 5.14366ZM6.97528 7.88896C6.37709 7.88896 5.88806 7.4039 5.88806 6.80735C5.88806 6.21079 6.37564 5.72573 6.97528 5.72573C7.57492 5.72573 8.0625 6.21079 8.0625 6.80735C8.0625 7.4039 7.57347 7.88896 6.97528 7.88896ZM9.10605 5.07561C9.10605 5.29135 8.9314 5.46365 8.71599 5.46365C8.49913 5.46365 8.32593 5.2899 8.32593 5.07561C8.32593 4.86131 8.50058 4.68756 8.71599 4.68756C8.9314 4.68756 9.10605 4.86131 9.10605 5.07561ZM10.2136 5.46945C10.1889 4.94963 10.0696 4.48919 9.68677 4.10983C9.30544 3.73047 8.84261 3.61173 8.32011 3.58567C7.7816 3.55526 6.16751 3.55526 5.62899 3.58567C5.10795 3.61029 4.64512 3.72902 4.26233 4.10838C3.87955 4.48774 3.76166 4.94819 3.73546 5.468C3.7049 6.00374 3.7049 7.60951 3.73546 8.14525C3.76021 8.66506 3.87955 9.1255 4.26233 9.50486C4.64512 9.88423 5.10649 10.003 5.62899 10.029C6.16751 10.0594 7.7816 10.0594 8.32011 10.029C8.84261 10.0044 9.30544 9.88567 9.68677 9.50486C10.0681 9.1255 10.1874 8.66506 10.2136 8.14525C10.2442 7.60951 10.2442 6.00519 10.2136 5.46945ZM9.51794 8.72008C9.40441 9.00388 9.18464 9.22252 8.89792 9.3369C8.46856 9.50631 7.44975 9.46722 6.97528 9.46722C6.50081 9.46722 5.48054 9.50486 5.05264 9.3369C4.76737 9.22396 4.5476 9.00532 4.43262 8.72008C4.26233 8.29294 4.30163 7.27938 4.30163 6.80735C4.30163 6.33532 4.26379 5.32031 4.43262 4.89461C4.54614 4.61082 4.76592 4.39218 5.05264 4.27779C5.48199 4.10838 6.50081 4.14747 6.97528 4.14747C7.44975 4.14747 8.47002 4.10983 8.89792 4.27779C9.18319 4.39073 9.40296 4.60937 9.51794 4.89461C9.68823 5.32176 9.64893 6.33532 9.64893 6.80735C9.64893 7.27938 9.68823 8.29438 9.51794 8.72008Z" fill="white"/>
</g>
<defs>
<clipPath id="clip0_1_159">
<rect width="6.58976" height="7.41348" fill="white" transform="translate(3.73105 3.10181)"/>
</clipPath>
</defs>
</svg>
