<svg width="15" height="14" viewBox="0 0 15 14" fill="none" xmlns="http://www.w3.org/2000/svg">
<path d="M7.43051 4.89878L7.75451 5.6566C7.77648 5.7225 7.83688 5.76094 7.89729 5.76643L8.72101 5.84331C8.89674 5.85978 8.96263 6.07395 8.83633 6.18927L8.21579 6.73292C8.16637 6.77686 8.1444 6.84275 8.16088 6.90316L8.3421 7.7104C8.38054 7.88064 8.19932 8.01243 8.04556 7.92457L7.33716 7.50173C7.28224 7.46878 7.21086 7.46878 7.15594 7.50173L6.44754 7.92457C6.29927 8.01243 6.11256 7.88064 6.151 7.7104L6.33222 6.90316C6.3487 6.84275 6.32673 6.77686 6.27731 6.73292L5.65677 6.18927C5.52498 6.07395 5.59637 5.85978 5.77209 5.84331L6.59581 5.76643C6.66171 5.76094 6.71662 5.72249 6.74408 5.66209L7.06808 4.90427C7.13398 4.73952 7.35913 4.73952 7.43051 4.89878Z" stroke="#F0C932" stroke-width="0.549146" stroke-miterlimit="10" stroke-linecap="round" stroke-linejoin="round"/>
<path d="M10.982 6.50484C10.9962 4.4425 9.33585 2.75914 7.27351 2.74494C5.21117 2.73075 3.52781 4.3911 3.51361 6.45344C3.49942 8.51578 5.15977 10.1991 7.22211 10.2133C9.28445 10.2275 10.9678 8.56718 10.982 6.50484Z" stroke="#F0C932" stroke-width="0.549146" stroke-miterlimit="10" stroke-linecap="round" stroke-linejoin="round"/>
<path d="M6.73855 10.1761L5.81049 12.5099L4.63531 11.1645L2.86157 11.3293L4.03675 8.38585" stroke="#F0C932" stroke-width="0.549146" stroke-miterlimit="10" stroke-linecap="round" stroke-linejoin="round"/>
<path d="M7.74902 10.1761L8.68257 12.51L9.85225 11.1645L11.6315 11.3293L10.4508 8.38586" stroke="#F0C932" stroke-width="0.549146" stroke-miterlimit="10" stroke-linecap="round" stroke-linejoin="round"/>
</svg>
