<svg width="16" height="16" viewBox="0 0 15 14" fill="none" xmlns="http://www.w3.org/2000/svg">
<rect x="1.10353" y="0.425046" width="12.7677" height="12.7677" stroke="white" stroke-width="0.41186"/>
<g clip-path="url(#clip0_1_149)">
<path d="M11.1032 4.62818C10.8285 4.74535 10.5371 4.82225 10.2388 4.85634C10.5495 4.67702 10.7881 4.39305 10.9005 4.0547C10.6051 4.22348 10.2819 4.3424 9.94486 4.40632C9.67032 4.12472 9.27922 3.94873 8.84635 3.94873C8.01521 3.94873 7.34135 4.59751 7.34135 5.39769C7.34135 5.51127 7.35467 5.62185 7.38032 5.72792C6.12957 5.66748 5.02066 5.09063 4.27837 4.21397C4.14886 4.42797 4.07464 4.67691 4.07464 4.94242C4.07464 5.44514 4.34035 5.88863 4.74415 6.14849C4.50516 6.14128 4.27143 6.07913 4.06247 5.96723C4.06238 5.9733 4.06238 5.97937 4.06238 5.98546C4.06238 6.68751 4.58113 7.27317 5.26958 7.40628C5.04796 7.46431 4.8155 7.4728 4.58996 7.43111C4.78145 8.00678 5.33726 8.42568 5.99578 8.43741C5.48073 8.82602 4.8318 9.05768 4.12674 9.05768C4.00524 9.05768 3.88547 9.05082 3.76773 9.03743C4.43374 9.44856 5.22479 9.68844 6.07467 9.68844C8.84285 9.68844 10.3566 7.4805 10.3566 5.56573C10.3566 5.50288 10.3551 5.4404 10.3522 5.37827C10.6468 5.17319 10.9011 4.91919 11.1032 4.62818Z" fill="white"/>
</g>
<defs>
<clipPath id="clip0_1_149">
<rect width="7.41348" height="5.76604" fill="white" transform="translate(3.78069 3.9259)"/>
</clipPath>
</defs>
</svg>
